<svg xmlns="http://www.w3.org/2000/svg" width="1920" height="239" fill="none" viewBox="0 0 1920 239">
  <path fill="url(#a)" d="M0 0h1920v239H0z"/>
  <path fill="#ED1C24" d="M992.852 66.5a32.155 32.155 0 0 1-5.535 18.023 32.765 32.765 0 0 1-14.741 11.947 33.23 33.23 0 0 1-18.978 1.846 32.976 32.976 0 0 1-16.818-8.878 32.31 32.31 0 0 1-8.989-16.609 32.061 32.061 0 0 1 1.869-18.742 32.531 32.531 0 0 1 12.097-14.559 33.141 33.141 0 0 1 18.249-5.467c8.711 0 17.066 3.418 23.226 9.502 6.16 6.083 9.62 14.334 9.62 22.938Z"/>
  <path fill="#fff" d="m948.708 100.1-1.379 3.013-.582 1.171-.593-.298a2.662 2.662 0 0 0-.604-.809l.949-2.055a2.597 2.597 0 0 0-.701-1.065.854.854 0 0 0-.582.064l-1.617.554c-.6.232-1.266.232-1.865 0a2.392 2.392 0 0 1-.769-.618 2.341 2.341 0 0 1-.449-.873l.636-.308c.171.197.309.42.409.66.073.135.191.24.335.298.291.058.592.058.884 0 .463 0 .711-.128.754-.202.108-.256-.065-.575-.528-.98a6.161 6.161 0 0 0-1.499-.937c.116-.237.277-.45.475-.628l-.895-.436-.604-.266.345-.746 9.594 4.259-.344.745-1.37-.543Zm-1.412-.639-3.083-1.384c.125.417.125.86 0 1.278.309.028.619.028.927 0a6.243 6.243 0 0 1 1.003 0c.291.358.533.751.722 1.171.067-.097.125-.201.173-.309 0-.117.107-.372.258-.756Z"/>
  <path fill="#fff" d="m955.866 101.548-.927 4.514-.679-.128a9.897 9.897 0 0 0-5.627-2.896l-.097-1.288c.668-.085 1.628-.138 2.878-.17a72.321 72.321 0 0 0 2.879-.117v-.203l-6.08-1.213.161-.777 9.303 1.82-.161.788-1.65-.33Zm-4.84 4.131a2.2 2.2 0 0 1-.787-.298c-.323-.192-.452-.426-.399-.682.097-.479.529-.639 1.294-.489.274.048.535.153.765.308a.672.672 0 0 1 .298.265.65.65 0 0 1 .09.385.632.632 0 0 1-.485.468c-.25.082-.518.097-.776.043Zm3.051-3.194c-1.078 0-2.091.064-3.051.16a13.574 13.574 0 0 1 2.641 1.852l.41-2.012Z"/>
  <path fill="#fff" d="M963.348 101.495v.319a6.89 6.89 0 0 1 2.156.256c.905.276 1.379.734 1.423 1.394 0 .33-.194.607-.626.852-.332.18-.7.286-1.078.309a1.575 1.575 0 0 1-.722-.107.634.634 0 0 1-.418-.471.633.633 0 0 1 .202-.593.987.987 0 0 1 .583-.213c.347.003.687.102.981.287.129-.064.194-.117.183-.191 0-.512-.722-.724-2.081-.65h-.56l.183 3.3h-.69a7.952 7.952 0 0 0-2.447-1.149 16.129 16.129 0 0 0-3.115-.309l-.787-1.065a54.832 54.832 0 0 0 5.293-1.49 1.825 1.825 0 0 1 0-.362l-5.994.33-.075-.777 12.321-.682v.777l-4.732.235Zm-1.359 2.182c0 .064 0-.16-.064-.66-.923.206-1.834.461-2.728.767.723.213 1.682.532 2.846.979l-.054-1.086Z"/>
  <path fill="#fff" d="m969.33 100.419 1.078 4.419-.571.138a2.613 2.613 0 0 0-1.078-.362l-.981-3.833-1.477.384-.205-.777 1.564-.394-.238-.895.572-.17.83.777 1.822-.458.194.788-1.51.383Z"/>
  <path fill="#fff" d="m976.726 97.715 1.821 4.259-.646.266a9.94 9.94 0 0 0-6.307.745l-.808-1.064a22.125 22.125 0 0 1 2.274-1.746 35.062 35.062 0 0 0 2.307-1.704l-.086-.18-5.746 2.395-.323-.746 8.71-3.651.323.734-1.519.692Zm-.96 1.736a33.003 33.003 0 0 0-2.425 1.841 14.104 14.104 0 0 1 3.234 0l-.809-1.841Zm-.657 4.365a2.315 2.315 0 0 1-.831.202.678.678 0 0 1-.722-.341c-.194-.447.076-.83.787-1.128.256-.108.531-.166.809-.171a.665.665 0 0 1 .657.362.576.576 0 0 1-.129.65 1.418 1.418 0 0 1-.571.394v.032ZM921.241 59.123l4.032.49-.162 1.33-1.078-.138-1.013-.117a1.69 1.69 0 0 0-1.552.415 3 3 0 0 0-.55 1.575c-.087.682 0 1.065.118 1.065h.054v-.522a2.118 2.118 0 0 1 0-.298c.046-.308.168-.6.356-.851.237-.341.485-.5.744-.469.258.032.603.405.7 1.065a7.01 7.01 0 0 1 0 1.842l-.819.479c0-.17 0-.33.076-.49v-.266c.151-1.182.054-1.8-.281-1.842-.334-.042-.334.16-.388.564-.036.442.054.884.259 1.278-.313.458-.647.67-.981.628a.942.942 0 0 1-.755-.618 1.786 1.786 0 0 1-.15-1 5.672 5.672 0 0 1 1.466-2.79l-.971-.117.345-2.757.723.085-.173 1.459Z"/>
  <path fill="#fff" d="m923.774 50.957 3.838 1.31-.248.649a9.993 9.993 0 0 0-1.541.585 2.9 2.9 0 0 0-1.316 1.459h.087a.702.702 0 0 1 .485.607c.029.274-.008.551-.108.809a2.502 2.502 0 0 1-.507.862c-.302.33-.582.447-.862.352a.905.905 0 0 1-.412-.336.885.885 0 0 1-.149-.505 2.333 2.333 0 0 1 .108-1.065c.26-.575.638-1.09 1.11-1.512a29.46 29.46 0 0 1 1.413-1.182l-2.361-.809-1.962 5.6-.69-.234 2.975-8.517.69.234-.55 1.693Zm4.291-7.367 3.439 2.129-.345.532-.755.394-1.294-.84-.539-.341a.827.827 0 0 0-.582-.118l-.205 2.939-.927.745c.097-.735.097-1.118 0-1.182-.097-.064-.312 0-.463.224-.151.223-.173.298-.302.543a7.924 7.924 0 0 1-.302.543c-.28.447-.582.564-.916.362-.334-.203-.324-.554-.205-1.193.064-.444.21-.874.431-1.267a5.968 5.968 0 0 1 2.447-2.129c-.258-.16-.539-.34-.819-.543l1.498-2.395.604.372-.765 1.225Zm-1.078 3.247v-1.065c-.435.22-.792.566-1.024.99-.136.22-.241.456-.313.703-.108.351-.086.586.075.713l.098-.053c.064-.064.269-.383.614-.926a.694.694 0 0 1 .604-.362h-.054Z"/>
  <path fill="#fff" d="M931.514 46.613a1.784 1.784 0 0 0-1.229.735 7.841 7.841 0 0 0-.808 1.416c-.223.5-.493.978-.809 1.426a3.032 3.032 0 0 1-1.078.842 1.172 1.172 0 0 1-1.293 0l-.216-.16.421-.532a1.232 1.232 0 0 0 1.444-.352c.275-.37.513-.766.712-1.182.202-.396.44-.774.711-1.128a4.679 4.679 0 0 1 1.154-1.065l-.248-.202.722-.916.895.693-.378.425Zm1.682-8.517a2.602 2.602 0 0 0 1.477-.67c.192-.195.361-.409.507-.64h1.272a2.184 2.184 0 0 0-.151 1.513c.141.403.378.768.69 1.064.273.2.575.362.894.48l-.248.51a4.431 4.431 0 0 1-2.015-.883 4.62 4.62 0 0 1-.583-1.214c-.37.205-.764.362-1.175.468a1.92 1.92 0 0 1-1.024-.085c-.235.36-.417.75-.539 1.16-.129.437-.107.735.054.906a.24.24 0 0 0 .367 0c.272-.393.422-.855.431-1.331a1.756 1.756 0 0 1 1.768.351 1.163 1.163 0 0 1 .312 1.065 2.493 2.493 0 0 1-.797 1.352c-.337.37-.762.649-1.237.813a3.022 3.022 0 0 1-1.48.124 10.07 10.07 0 0 1-2.048-.926l.528-.629c.539.398 1.183.63 1.854.671a2.666 2.666 0 0 0 1.758-.905c.174-.16.31-.356.398-.575a.557.557 0 0 0-.054-.65.488.488 0 0 0-.194-.137c-.093.31-.264.59-.495.82a1.929 1.929 0 0 1-1.37.617 1.342 1.342 0 0 1-.927-.437 1.46 1.46 0 0 1-.172-.788l-2.372 2.257-.496-.51 7.837-7.453.507.511-3.277 3.151Z"/>
  <path fill="#fff" d="m938.651 33.934 2.253 3.364-.431.277a2.889 2.889 0 0 0-.992 0l-1.951-2.917-1.165.766-.398-.607 1.228-.766-.452-.692.42-.298.927.404 1.391-.905.399.596-1.229.778Z"/>
  <path fill="#fff" d="m939.287 33.146-.281-.65 9.497-4.11.292.65-9.508 4.11Zm6.877 1.5a4.449 4.449 0 0 1-3.051.32 4.637 4.637 0 0 1-2.457-1.83l.485-.363a5.16 5.16 0 0 0 1.8 1.363 3.535 3.535 0 0 0 2.706-.192c.459-.2.881-.473 1.25-.809.485-.447.647-.862.475-1.235a.912.912 0 0 0-.83-.543 2.101 2.101 0 0 0-1.078.17c-.367.16-.539.288-.496.384.043.096.129.064.345.096.215.032.334.096.377.191a.63.63 0 0 1 .012.384.63.63 0 0 1-.217.319 1.874 1.874 0 0 1-.668.447 1.94 1.94 0 0 1-.927.192.801.801 0 0 1-.733-.5c-.151-.341 0-.735.474-1.161a4.025 4.025 0 0 1 1.186-.767 4.02 4.02 0 0 1 1.908-.33 1.68 1.68 0 0 1 .926.209c.281.157.51.391.658.675.114.314.128.655.039.977a1.63 1.63 0 0 1-.534.822 4.313 4.313 0 0 1-1.65 1.182Z"/>
  <path fill="#fff" d="m956.2 27.919.367 2.129-1.078.18-.291-.649a5.16 5.16 0 0 0-2.059-.362c.033.072.059.147.075.224.079.397-.169.642-.743.735a2.11 2.11 0 0 1-.777 0 .628.628 0 0 1-.528-.48c-.075-.49.248-.798.981-.915a8.73 8.73 0 0 1 2.846.138l-.129-.734-6.134 1.011-.119-.713 10.036-1.693.108.66-2.555.469Z"/>
  <path fill="#fff" d="M956.793 32.166h-.636l-.237-.095h-.528c-.434.027-.866.08-1.294.16-.428.07-.86.12-1.293.148-.476.04-.956-.01-1.412-.149a1.077 1.077 0 0 1-.584-.346 1.052 1.052 0 0 1-.257-.623 3.308 3.308 0 0 1 0-.372h.808c0 .639.324.947.873.926.27 0 .658-.064 1.175-.138.389-.071.781-.12 1.175-.15.277-.007.554.029.82.107a4.086 4.086 0 0 1 0-.564v-.564a.647.647 0 0 0-.216-.521.652.652 0 0 0-.55-.15h-.194l-.366.287c.589 0 .891.107.905.32a.44.44 0 0 1-.226.383.883.883 0 0 1-.453.17c-.808 0-1.218-.18-1.24-.639a.778.778 0 0 1 .248-.638c.255-.2.548-.345.863-.426a7.415 7.415 0 0 1 1.746.096.96.96 0 0 1 .562.312.94.94 0 0 1 .236.593v1.362c.044.167.069.339.075.511Zm3.741-4.3-.065 3.992h-.539a2.448 2.448 0 0 0-.83-.65v-3.364l-1.423-.021v-.703h1.736l.603-.373a4.224 4.224 0 0 0-2.716-.979 4.427 4.427 0 0 0-2.49.681l-.485-.298a9.095 9.095 0 0 1 3.73-1.064 4.71 4.71 0 0 1 1.875.436c.528.25 1.033.546 1.509.884l-1.207.745h1.714v.703l-1.412.01Zm11.416 1.81-.96 3.938-.733-.18a8.8 8.8 0 0 0-4.894-2.79v-1.129c.869-.052 1.74-.052 2.609 0h2.63v-.149l-6.069-1.469.162-.692 8.839 2.13-.172.691-1.412-.35Zm-1.585.702c-1.164-.043-2.123-.043-2.878 0a11.31 11.31 0 0 1 2.436 1.767l.442-1.767Z"/>
  <path fill="#fff" d="m975.098 30.985-1.542 3.705-.485-.192a2.419 2.419 0 0 0-.55-.81l1.337-3.193-1.294-.522.281-.67 1.315.532.323-.767.496.181.173.99 1.53.628-.269.66-1.315-.542Zm3.848 7.111a21.15 21.15 0 0 0-.97-1.298c-.33-.433-.691-.842-1.078-1.225a12.816 12.816 0 0 0-1.455-1.15l.927-.915.948.926c.493.573.926 1.194 1.294 1.852.4.664.759 1.35 1.078 2.055l-.744-.245Zm-1.488-4.258a2.959 2.959 0 0 1-.862-.703.85.85 0 0 1-.205-1 1.177 1.177 0 0 1 1.175-.5c.46.016.91.136 1.315.35.326.167.612.4.841.682a.846.846 0 0 1 .13.98 1.154 1.154 0 0 1-1.078.532 2.681 2.681 0 0 1-1.316-.341Zm.701-1.597a.547.547 0 0 0-.248 0 .207.207 0 0 0-.194.085.816.816 0 0 0 0 .66.995.995 0 0 0 .377.564l.292.075h.237s0-.32-.13-.692c-.129-.373-.258-.639-.334-.692Zm3.062 5.174a.798.798 0 0 1 .7-.181c.251.055.487.164.69.32.191.156.339.357.431.585a.632.632 0 0 1-.075.692c-.356.426-.852.383-1.477-.139a2.942 2.942 0 0 1-.959-1.383 1.57 1.57 0 0 1 .205-1.576 1.242 1.242 0 0 1 .959-.458c.374.02.73.163 1.013.405.237.222.44.476.604.755a2 2 0 0 1 .399.905c.497.192 1.03.28 1.563.256-.07.39.006.791.215 1.128l.658-.766a13.403 13.403 0 0 1-1.078-.83l-3.838-3.194.496-.586 6.889 5.706-.464.554-.938-.766-2.587 3.098-.496-.469-.151-.915.615-.714c.156-.166.29-.352.399-.553a.727.727 0 0 0-.119-.798l-1.326-.395a4.63 4.63 0 0 1-.259-.585 1.793 1.793 0 0 0-.194-.447 2.138 2.138 0 0 0-.485-.522 1.81 1.81 0 0 0-.733-.383.71.71 0 0 0-.744.234.765.765 0 0 0-.204.51.6.6 0 0 0 .237.48l.054.032Z"/>
  <path fill="#fff" d="m989.532 41.492-3.072 2.651-.345-.383a2.302 2.302 0 0 0-.14-.98l2.662-2.299-.916-1.065.539-.468.938 1.065.647-.554.355.383-.291.97 1.078 1.234-.55.468-.905-1.022Z"/>
  <path fill="#fff" d="M992.173 44.931a2.162 2.162 0 0 0-1.639-.607 2.636 2.636 0 0 0-1.595.245c-.291.203-.367.405-.237.618.162.058.334.087.506.085a.98.98 0 0 1 .658.458c.134.182.206.402.205.628a.664.664 0 0 1-.259.564.77.77 0 0 1-.69.096 1.49 1.49 0 0 1-.798-.607 1.891 1.891 0 0 1-.409-1.288 1.553 1.553 0 0 1 .722-1.065 3.274 3.274 0 0 1 2.458-.639l-1.078-1.5.593-.416 2.835 3.886-.593.426-.679-.884Z"/>
  <path fill="#fff" d="m994.059 47.987-1.563.756v.212a17.819 17.819 0 0 1 2.792 2.31v1.417a2.031 2.031 0 0 0-2.156-.309 2.47 2.47 0 0 0-.948.937l-.388-.82a4.09 4.09 0 0 1 1.347-1.214c.227-.1.466-.172.712-.213a7.47 7.47 0 0 0-2.588-1.778l-.172-1.383 2.361-1.172-.744-1.469.647-.32 4.042 7.975-.657.32-2.685-5.25Zm4.366 12.179-3.859.926-.183-.639.345-.862 1.52-.309a2.077 2.077 0 0 0 1.002-.479c.321-.376.5-.85.507-1.341a2.968 2.968 0 0 0-.162-.277c-.086-.117-.151-.181-.205-.192-.053-.01-.172.15-.215.33a9.115 9.115 0 0 1-.194.671.633.633 0 0 1-.388.405c-.41.1-.679-.103-.809-.607a1.93 1.93 0 0 1 0-.607c.119-.202.259-.458.41-.777a2.382 2.382 0 0 0-.485-.405 1.273 1.273 0 0 1-.528-.713 1.411 1.411 0 0 1 0-.607c0-.266.161-.415.334-.458.172-.042.582.085.938.447.221.26.478.485.765.671l-.259-1.064c.203-.288.377-.595.518-.916a4.59 4.59 0 0 1 .161 1.767c0 .234-.075.447-.097.628a9.05 9.05 0 0 1 1.1 1.502 9.341 9.341 0 0 0-.819 1.596l.97-.223.668 2.683-.711.17-.324-1.32Z"/>
  <path fill="#FEFEFE" d="M1004.57 66.5c0 8.705-2.61 17.214-7.51 24.452-4.897 7.238-11.857 12.879-20 16.21a45.079 45.079 0 0 1-25.748 2.504 44.736 44.736 0 0 1-22.818-12.045 43.844 43.844 0 0 1-12.196-22.534 43.5 43.5 0 0 1 2.536-25.429c3.373-8.042 9.085-14.916 16.413-19.752a44.965 44.965 0 0 1 24.759-7.417c11.815.014 23.141 4.655 31.496 12.906 8.354 8.25 13.058 19.437 13.068 31.105Zm-44.564-45.438a46.398 46.398 0 0 0-25.55 7.648c-7.564 4.988-13.46 12.08-16.942 20.377a44.89 44.89 0 0 0-2.625 26.238 45.24 45.24 0 0 0 12.577 23.257 46.172 46.172 0 0 0 23.54 12.438 46.52 46.52 0 0 0 26.57-2.574c8.404-3.434 15.588-9.252 20.645-16.718a44.96 44.96 0 0 0 7.759-25.227c-.01-12.043-4.85-23.591-13.472-32.11-8.619-8.518-20.308-13.312-32.502-13.329Z"/>
  <path fill="#FFCB05" d="M947.296 43.739c-.323-.181-1.574-.415-1.94 0-.367.415.205 1.458.108 1.98-.701.224-1.337 1.214-1.671 1.831-.55 1.012-.421 1.576.636 2.13.723.31 1.425.665 2.102 1.064.707.537 1.507.94 2.361 1.192a2.782 2.782 0 0 1 .097 2.321 5.867 5.867 0 0 0-2.156.277c-.733.309-.776.98-1.283 1.533-.507.554-1.078.639-1.531 1.427a2.811 2.811 0 0 0-.463 1.895c.463 1.394 2.996 1.352 4.118 2.023 1.66 1 .592 2.48-.119 3.683-.711 1.203-.528 2.321.216 3.769a14.196 14.196 0 0 1 1.735 3.737c.561 2.768-.701 7.09 1.897 8.953.636.458 1.52.81 1.984 0 .366-.606.463.213.949-.298.689-.734.269-.67.474-.191.399.915.56.383 1.617.117 1.056-.267 1.369-.405 2.156.276.787.682 1.229 1.172 1.876.192.495-.745.323-1.884.808-2.608.485-.724 1.078-.245 1.887 0 .183 0 .15.064.301.17 1.219 0 .744-1.065 1.52-1.48.981-.51 1.553.959 2.07-.266.636-1.469-.517-4.194 2.296-3.502 1.725.415 2.512 2.278 2.857 3.843.226 1.064.237 2.076.496 3.087.317.962.534 1.954.647 2.96.084 1.2.312 2.387.679 3.534 1.347-.063.539-1.767 1.315-2.31.776-.543 2.328.309 3.32.15.086-.872.086-1.749 0-2.62-.151-.905-.593-1.618-.668-2.544-.162-1.714.258-3.545 0-5.26-.259-1.713-1.186-3.161-1.585-4.769-.248-1.611-.63-3.2-1.143-4.748-.377-.873-.776-1.065-1.768-.926-.582 1.522-.409 2.938-1.272 4.386-.862 1.448-1.886 2.842-3.503.937a17.995 17.995 0 0 1-1.401-2.523 5.457 5.457 0 0 1-.884-2.321c-.108-1.8 1.282-2.917 2.856-3.386 1.38-.415 1.456-.83 2.501-1.693.69-.585 1.693-.756 2.469-1.32 1.304-.926.269-1.788.819-2.96.377-.809 2.156-.82 2.091-1.745-.646-.362-.991-.98-1.692-1.331a5.893 5.893 0 0 0-1.973-.767 3.85 3.85 0 0 0-2.026.107 9.022 9.022 0 0 1-1.801.66c-1.52 0-2.156-2.278-3.654-.681-.442.468-.517.979-1.078 1.362a4.202 4.202 0 0 1-2.156.543c-.725.087-1.444.212-2.156.373a4.356 4.356 0 0 1-2.285-.469c-1.941-.724-1.747-1.522-1.747-3.513 0-1.171 0-3.939-1.52-4.024-1.078-.053-.69.734-1.304 1.16-.614.426-1.488-.17-1.8-.543-.679-.894-.334-2.523-1.919-2.63-1.585-.106-1.843 1.566-2.857-.244M923.149 71.888l.96 2.906h3.104l-2.511 1.8.959 2.906-2.512-1.8-2.501 1.8.96-2.907-2.512-1.8h3.105l.948-2.906Zm6.436 13.68.948 2.906h3.105l-2.501 1.8.949 2.906-2.501-1.8-2.512 1.8.959-2.906-2.5-1.8h3.093l.96-2.906Zm60.842-.15.959 2.918h3.094l-2.512 1.8.96 2.906-2.501-1.8-2.512 1.8.959-2.907-2.501-1.8h3.094l.96-2.916Zm6.996-13.956.959 2.906h3.098l-2.505 1.8.949 2.906-2.501-1.8-2.501 1.8.949-2.907-2.501-1.799h3.093l.96-2.906Z"/>
  <path fill="#fff" d="M720.883 163h-16.76v-26.96h16.6v4.92h-10.4v6.12h9.28v4.88h-9.28v6.12h10.56V163Zm34.558 0h-5.84v-12.04c0-1.147-.226-2.053-.68-2.72-.453-.667-1.106-1-1.96-1-.906 0-1.72.373-2.44 1.12-.693.72-1.04 2.027-1.04 3.92V163h-5.84v-12.04c0-1.147-.226-2.053-.68-2.72-.453-.667-1.106-1-1.96-1-.906 0-1.72.373-2.44 1.12-.693.72-1.04 2.027-1.04 3.92V163h-5.84v-20.28h5.84v3.16c1.12-2.24 3.027-3.36 5.72-3.36 2.854 0 4.747 1.28 5.68 3.84.454-1.2 1.214-2.133 2.28-2.8 1.067-.693 2.32-1.04 3.76-1.04 2 0 3.574.64 4.72 1.92 1.174 1.253 1.76 3.107 1.76 5.56v13Zm20.535-1.16c-1.386.907-3.506 1.36-6.36 1.36-3.333 0-5.933-.96-7.8-2.88-1.84-1.947-2.76-4.44-2.76-7.48 0-3.227.894-5.747 2.68-7.56 1.814-1.84 4.04-2.76 6.68-2.76 2.72 0 4.867.8 6.44 2.4 1.574 1.573 2.36 3.933 2.36 7.08 0 .613-.106 1.667-.32 3.16h-11.92c.4 1.12 1.094 1.987 2.08 2.6.987.613 2.174.92 3.56.92 2.054 0 3.84-.573 5.36-1.72v4.88Zm-7.32-14.88c-.933 0-1.76.347-2.48 1.04-.72.667-1.2 1.667-1.44 3h7.04v-.48c-.186-2.373-1.226-3.56-3.12-3.56ZM787.184 163h-5.84l.04-20.28h5.8v3.76c.374-1.173.987-2.107 1.84-2.8a4.664 4.664 0 0 1 3.04-1.08c.64 0 1.147.053 1.52.16v5.52c-.64-.293-1.373-.44-2.2-.44-1.253 0-2.266.467-3.04 1.4-.773.907-1.16 2.12-1.16 3.64V163Zm27.805-1.96c0 3.253-.973 5.693-2.92 7.32-1.947 1.653-4.387 2.48-7.32 2.48-2.853 0-5.347-.507-7.48-1.52v-5.96c1.867 1.493 4.16 2.24 6.88 2.24 1.76 0 3.04-.373 3.84-1.12.8-.747 1.2-1.92 1.2-3.52v-1.36c-1.173 1.813-3.04 2.72-5.6 2.72-2.24 0-4.173-.827-5.8-2.48-1.6-1.653-2.4-4.107-2.4-7.36 0-2.88.773-5.253 2.32-7.12 1.573-1.893 3.627-2.84 6.16-2.84 2.4 0 4.173.96 5.32 2.88v-2.68h5.8v18.32Zm-13.52-8.52c0 1.68.32 2.96.96 3.84.64.88 1.56 1.32 2.76 1.32 1.253 0 2.227-.467 2.92-1.4.72-.96 1.08-2.107 1.08-3.44 0-3.627-1.32-5.44-3.96-5.44-1.173 0-2.093.453-2.76 1.36-.667.907-1 2.16-1 3.76Zm34.039 9.32c-1.387.907-3.507 1.36-6.36 1.36-3.334 0-5.934-.96-7.8-2.88-1.84-1.947-2.76-4.44-2.76-7.48 0-3.227.893-5.747 2.68-7.56 1.813-1.84 4.04-2.76 6.68-2.76 2.72 0 4.866.8 6.44 2.4 1.573 1.573 2.36 3.933 2.36 7.08 0 .613-.107 1.667-.32 3.16h-11.92c.4 1.12 1.093 1.987 2.08 2.6.986.613 2.173.92 3.56.92 2.053 0 3.84-.573 5.36-1.72v4.88Zm-7.32-14.88c-.934 0-1.76.347-2.48 1.04-.72.667-1.2 1.667-1.44 3h7.04v-.48c-.187-2.373-1.227-3.56-3.12-3.56ZM859.516 163h-5.84v-12.08c0-1.2-.28-2.107-.84-2.72-.56-.64-1.347-.96-2.36-.96-1.067 0-1.96.427-2.68 1.28-.694.827-1.04 2.08-1.04 3.76V163h-5.84v-20.28h5.84v3.44a5.87 5.87 0 0 1 2.32-2.64c1.066-.667 2.333-1 3.8-1 2.08 0 3.706.627 4.88 1.88 1.173 1.227 1.76 3.04 1.76 5.44V163Zm19.763-.96c-1.574.853-3.467 1.28-5.68 1.28-3.04 0-5.547-.96-7.52-2.88-1.974-1.947-2.96-4.453-2.96-7.52.053-3.04 1.04-5.547 2.96-7.52 1.92-2 4.546-3 7.88-3 2.053 0 3.826.387 5.32 1.16v5c-1.414-.88-2.987-1.32-4.72-1.32-1.627 0-2.947.493-3.96 1.48-1.014.96-1.534 2.36-1.56 4.2.106 1.787.64 3.173 1.6 4.16.96.987 2.226 1.48 3.8 1.48 1.68 0 3.293-.467 4.84-1.4v4.88Zm14.95.36c-2.107 5.68-5.32 8.52-9.64 8.52-.827 0-1.574-.067-2.24-.2v-4.64c.426.107.88.16 1.36.16 2.213 0 3.813-1.187 4.8-3.56l-7.84-19.96h6.36l2.2 6.32c.56 1.627 1.013 3.027 1.36 4.2.373 1.173.6 1.947.68 2.32l.12.56c.293-1.067 1.013-3.427 2.16-7.08l2-6.32h6l-7.32 19.68Zm36.889-7.24c0 2.427-.894 4.4-2.68 5.92-1.787 1.493-4.16 2.24-7.12 2.24-3.174 0-5.76-.56-7.76-1.68v-6.2c2.426 1.76 5.013 2.64 7.76 2.64.933 0 1.706-.24 2.32-.72.613-.507.92-1.16.92-1.96 0-.267-.04-.52-.12-.76a1.751 1.751 0 0 0-.44-.68 3.692 3.692 0 0 0-.64-.52c-.187-.16-.48-.333-.88-.52a20.846 20.846 0 0 0-.96-.52c-.267-.133-.667-.32-1.2-.56-.507-.24-.92-.427-1.24-.56-1.734-.8-3.134-1.787-4.2-2.96-1.04-1.173-1.56-2.733-1.56-4.68 0-2.32.853-4.187 2.56-5.6 1.706-1.44 4.066-2.16 7.08-2.16 2.693 0 5.013.453 6.96 1.36V143c-2.16-1.253-4.4-1.88-6.72-1.88-1.04 0-1.84.213-2.4.64-.534.427-.8.973-.8 1.64 0 .667.333 1.267 1 1.8.666.507 1.666 1.053 3 1.64.826.373 1.506.707 2.04 1 .56.267 1.186.653 1.88 1.16.72.48 1.28 1 1.68 1.56.426.533.786 1.2 1.08 2 .293.8.44 1.667.44 2.6Zm19.507 6.68c-1.387.907-3.507 1.36-6.36 1.36-3.334 0-5.934-.96-7.8-2.88-1.84-1.947-2.76-4.44-2.76-7.48 0-3.227.893-5.747 2.68-7.56 1.813-1.84 4.04-2.76 6.68-2.76 2.72 0 4.866.8 6.44 2.4 1.573 1.573 2.36 3.933 2.36 7.08 0 .613-.107 1.667-.32 3.16h-11.92c.4 1.12 1.093 1.987 2.08 2.6.986.613 2.173.92 3.56.92 2.053 0 3.84-.573 5.36-1.72v4.88Zm-7.32-14.88c-.934 0-1.76.347-2.48 1.04-.72.667-1.2 1.667-1.44 3h7.04v-.48c-.187-2.373-1.227-3.56-3.12-3.56ZM961.833 163h-5.84l.04-20.28h5.8v3.76c.373-1.173.986-2.107 1.84-2.8a4.662 4.662 0 0 1 3.04-1.08c.64 0 1.146.053 1.52.16v5.52c-.64-.293-1.374-.44-2.2-.44-1.254 0-2.267.467-3.04 1.4-.774.907-1.16 2.12-1.16 3.64V163Zm20.285 0h-6l-7.48-20.28h6.12l2.64 8.64c.4 1.333.746 2.6 1.04 3.8.293 1.173.48 2.027.559 2.56l.161.76c.24-1.733.84-4.107 1.8-7.12l2.72-8.64h6l-7.56 20.28Zm16.205 0h-5.84v-20.28h5.84V163Zm-.52-28.56c.666.667 1 1.467 1 2.4 0 .933-.334 1.733-1 2.4-.667.667-1.467 1-2.4 1-.934 0-1.734-.333-2.4-1-.667-.667-1-1.467-1-2.4 0-.933.333-1.733 1-2.4.666-.667 1.466-1 2.4-1 .933 0 1.733.333 2.4 1Zm20.697 27.6c-1.58.853-3.47 1.28-5.68 1.28-3.04 0-5.55-.96-7.52-2.88-1.98-1.947-2.96-4.453-2.96-7.52.05-3.04 1.04-5.547 2.96-7.52 1.92-2 4.54-3 7.88-3 2.05 0 3.82.387 5.32 1.16v5c-1.42-.88-2.99-1.32-4.72-1.32-1.63 0-2.95.493-3.96 1.48-1.02.96-1.54 2.36-1.56 4.2.1 1.787.64 3.173 1.6 4.16.96.987 2.22 1.48 3.8 1.48 1.68 0 3.29-.467 4.84-1.4v4.88Zm19.51-.2c-1.39.907-3.51 1.36-6.36 1.36-3.34 0-5.94-.96-7.8-2.88-1.84-1.947-2.76-4.44-2.76-7.48 0-3.227.89-5.747 2.68-7.56 1.81-1.84 4.04-2.76 6.68-2.76 2.72 0 4.86.8 6.44 2.4 1.57 1.573 2.36 3.933 2.36 7.08 0 .613-.11 1.667-.32 3.16h-11.92c.4 1.12 1.09 1.987 2.08 2.6.98.613 2.17.92 3.56.92 2.05 0 3.84-.573 5.36-1.72v4.88Zm-7.32-14.88c-.94 0-1.76.347-2.48 1.04-.72.667-1.2 1.667-1.44 3h7.04v-.48c-.19-2.373-1.23-3.56-3.12-3.56Zm32.13 16.04h-9.2v-26.96h9.28c4.05 0 7.37 1.253 9.96 3.76 2.58 2.48 3.88 5.573 3.88 9.28 0 4.32-1.28 7.72-3.84 10.2-2.54 2.48-5.9 3.72-10.08 3.72Zm-.12-21.88h-2.76v16.84h2.8c2.48 0 4.38-.773 5.72-2.32 1.36-1.547 2.04-3.733 2.04-6.56 0-2.4-.68-4.32-2.04-5.76-1.36-1.467-3.28-2.2-5.76-2.2Zm24.06 21.88h-5.84v-20.28h5.84V163Zm-.52-28.56c.67.667 1 1.467 1 2.4 0 .933-.33 1.733-1 2.4-.67.667-1.47 1-2.4 1-.93 0-1.73-.333-2.4-1-.67-.667-1-1.467-1-2.4 0-.933.33-1.733 1-2.4.67-.667 1.47-1 2.4-1 .93 0 1.73.333 2.4 1Zm11.34 28.56h-5.84l.04-20.28h5.8v3.76c.37-1.173.98-2.107 1.84-2.8.88-.72 1.89-1.08 3.04-1.08.64 0 1.14.053 1.52.16v5.52c-.64-.293-1.38-.44-2.2-.44-1.26 0-2.27.467-3.04 1.4-.78.907-1.16 2.12-1.16 3.64V163Zm24.92-1.16c-1.39.907-3.51 1.36-6.36 1.36-3.33 0-5.93-.96-7.8-2.88-1.84-1.947-2.76-4.44-2.76-7.48 0-3.227.89-5.747 2.68-7.56 1.81-1.84 4.04-2.76 6.68-2.76 2.72 0 4.87.8 6.44 2.4 1.57 1.573 2.36 3.933 2.36 7.08 0 .613-.11 1.667-.32 3.16h-11.92c.4 1.12 1.09 1.987 2.08 2.6s2.17.92 3.56.92c2.05 0 3.84-.573 5.36-1.72v4.88Zm-7.32-14.88c-.93 0-1.76.347-2.48 1.04-.72.667-1.2 1.667-1.44 3h7.04v-.48c-.19-2.373-1.23-3.56-3.12-3.56Zm27.89 15.08c-1.58.853-3.47 1.28-5.68 1.28-3.04 0-5.55-.96-7.52-2.88-1.98-1.947-2.96-4.453-2.96-7.52.05-3.04 1.04-5.547 2.96-7.52 1.92-2 4.54-3 7.88-3 2.05 0 3.82.387 5.32 1.16v5c-1.42-.88-2.99-1.32-4.72-1.32-1.63 0-2.95.493-3.96 1.48-1.02.96-1.54 2.36-1.56 4.2.1 1.787.64 3.173 1.6 4.16.96.987 2.22 1.48 3.8 1.48 1.68 0 3.29-.467 4.84-1.4v4.88Zm15.43.52c-.99.427-2.32.64-4 .64-4.62 0-6.92-2.307-6.92-6.92V147h-2.92v-4.28h2.92v-4.8h5.84v4.8h4.72V147h-4.72v9.32c0 .72.2 1.267.6 1.64.42.373.97.56 1.64.56 1.06 0 2.01-.267 2.84-.8v4.84Zm22.47-9.8c0 3.067-.88 5.6-2.64 7.6-1.74 1.973-4.16 2.96-7.28 2.96-3.18 0-5.63-.947-7.36-2.84-1.74-1.92-2.6-4.373-2.6-7.36 0-3.12.9-5.68 2.72-7.68 1.81-2.027 4.22-3.04 7.24-3.04 3.14 0 5.58.973 7.32 2.92 1.73 1.947 2.6 4.427 2.6 7.44Zm-12.84-4.12c-.64 1.093-.96 2.507-.96 4.24s.32 3.16.96 4.28c.66 1.093 1.65 1.64 2.96 1.64 1.28 0 2.22-.533 2.84-1.6.64-1.093.96-2.507.96-4.24 0-3.973-1.3-5.96-3.88-5.96-1.28 0-2.24.547-2.88 1.64Zm22.45 14.36h-5.84l.04-20.28h5.8v3.76c.38-1.173.99-2.107 1.84-2.8.88-.72 1.9-1.08 3.04-1.08.64 0 1.15.053 1.52.16v5.52c-.64-.293-1.37-.44-2.2-.44-1.25 0-2.26.467-3.04 1.4-.77.907-1.16 2.12-1.16 3.64V163Zm20.37-.6c-2.11 5.68-5.32 8.52-9.64 8.52-.83 0-1.58-.067-2.24-.2v-4.64c.42.107.88.16 1.36.16 2.21 0 3.81-1.187 4.8-3.56l-7.84-19.96h6.36l2.2 6.32c.56 1.627 1.01 3.027 1.36 4.2.37 1.173.6 1.947.68 2.32l.12.56c.29-1.067 1.01-3.427 2.16-7.08l2-6.32h6l-7.32 19.68ZM450.325 208.84c-1.227.88-2.76 1.32-4.6 1.32-2.134 0-3.86-.62-5.18-1.86-1.307-1.24-1.96-2.927-1.96-5.06 0-2.08.673-3.76 2.02-5.04 1.36-1.28 3.073-1.92 5.14-1.92 1.533 0 2.846.287 3.94.86v2.58c-1.227-.733-2.527-1.1-3.9-1.1-1.347 0-2.434.42-3.26 1.26-.827.84-1.24 1.96-1.24 3.36 0 1.427.4 2.553 1.2 3.38.813.813 1.926 1.22 3.34 1.22.693 0 1.366-.12 2.02-.36v-3.18h-2.48v-2.16h4.96v6.48h-.02l.02.22Zm11.807-3.94c0 1.533-.434 2.793-1.3 3.78-.854.987-2.054 1.48-3.6 1.48-1.534 0-2.734-.48-3.6-1.44-.854-.96-1.28-2.187-1.28-3.68 0-1.547.446-2.82 1.34-3.82.893-1.013 2.073-1.52 3.54-1.52 1.56 0 2.766.493 3.62 1.48.853.973 1.28 2.213 1.28 3.72Zm-7.26.06c0 .933.206 1.713.62 2.34.413.627 1 .94 1.76.94.786 0 1.38-.307 1.78-.92.4-.613.6-1.393.6-2.34 0-.973-.194-1.767-.58-2.38-.387-.627-.994-.94-1.82-.94-.76 0-1.347.313-1.76.94-.4.627-.6 1.413-.6 2.36ZM469.42 210h-2.6l-3.66-10.14h2.52l1.34 4.3c.267.84.494 1.593.68 2.26.187.653.307 1.1.36 1.34l.06.36c.134-.747.514-2.067 1.14-3.96l1.4-4.3h2.48L469.42 210Zm13.009-.56c-.707.44-1.727.66-3.06.66-1.614 0-2.887-.48-3.82-1.44-.934-.96-1.4-2.2-1.4-3.72 0-1.613.44-2.88 1.32-3.8.88-.92 1.98-1.38 3.3-1.38 1.32 0 2.366.4 3.14 1.2.773.8 1.16 1.967 1.16 3.5 0 .373-.047.853-.14 1.44h-6.36c.173.733.533 1.293 1.08 1.68.56.387 1.253.58 2.08.58 1.066 0 1.966-.267 2.7-.8v2.08Zm-3.6-7.8c-.574 0-1.074.213-1.5.64-.414.413-.68 1.02-.8 1.82h4.26v-.3c-.027-.653-.207-1.173-.54-1.56-.32-.4-.794-.6-1.42-.6Zm8.846 8.36h-2.42l.02-10.14h2.4v1.8c.466-1.253 1.32-1.88 2.56-1.88.28 0 .506.02.68.06v2.32a2.54 2.54 0 0 0-1.02-.2c-.654 0-1.187.267-1.6.8-.414.533-.62 1.2-.62 2V210Zm13.45 0h-2.4v-6.24c0-.667-.16-1.167-.48-1.5-.32-.347-.753-.52-1.3-.52-.626 0-1.153.247-1.58.74-.426.48-.64 1.173-.64 2.08V210h-2.4v-10.14h2.4v1.74c.574-1.24 1.614-1.86 3.12-1.86 1.014 0 1.814.307 2.4.92.587.613.88 1.48.88 2.6V210Zm16.889 0h-2.42v-6.22c0-1.36-.52-2.04-1.56-2.04-.52 0-.987.227-1.4.68-.4.453-.6 1.167-.6 2.14V210h-2.42v-6.22c0-1.36-.52-2.04-1.56-2.04-.52 0-.987.227-1.4.68-.413.453-.62 1.167-.62 2.14V210h-2.4v-10.14h2.4v1.6c.573-1.147 1.527-1.72 2.86-1.72 1.48 0 2.44.64 2.88 1.92a3.072 3.072 0 0 1 1.2-1.42c.533-.333 1.14-.5 1.82-.5 1.027 0 1.82.313 2.38.94.56.613.84 1.493.84 2.64V210Zm10.215-.56c-.706.44-1.726.66-3.06.66-1.613 0-2.886-.48-3.82-1.44-.933-.96-1.4-2.2-1.4-3.72 0-1.613.44-2.88 1.32-3.8.88-.92 1.98-1.38 3.3-1.38 1.32 0 2.367.4 3.14 1.2.774.8 1.16 1.967 1.16 3.5 0 .373-.046.853-.14 1.44h-6.36c.174.733.534 1.293 1.08 1.68.56.387 1.254.58 2.08.58 1.067 0 1.967-.267 2.7-.8v2.08Zm-3.6-7.8c-.573 0-1.073.213-1.5.64-.413.413-.68 1.02-.8 1.82h4.26v-.3c-.026-.653-.206-1.173-.54-1.56-.32-.4-.793-.6-1.42-.6Zm15.246 8.36h-2.4v-6.24c0-.667-.16-1.167-.48-1.5-.32-.347-.753-.52-1.3-.52-.626 0-1.153.247-1.58.74-.426.48-.64 1.173-.64 2.08V210h-2.4v-10.14h2.4v1.74c.574-1.24 1.614-1.86 3.12-1.86 1.014 0 1.814.307 2.4.92.587.613.88 1.48.88 2.6V210Zm8.109-.24c-.467.227-1.067.34-1.8.34-2.187 0-3.28-1.107-3.28-3.32v-5.12h-1.52v-1.8h1.52v-2.44h2.4v2.44h2.52v1.8h-2.52v5.16c0 .427.113.753.34.98.227.213.54.32.94.32a2.5 2.5 0 0 0 1.4-.42v2.06Zm15.079.24h-8.04v-13.48h7.96v2.06h-5.42v3.66h4.82v2.04h-4.82v3.66h5.5V210Zm16.806 0h-2.42v-6.22c0-1.36-.52-2.04-1.56-2.04-.52 0-.986.227-1.4.68-.4.453-.6 1.167-.6 2.14V210h-2.42v-6.22c0-1.36-.52-2.04-1.56-2.04-.52 0-.986.227-1.4.68-.413.453-.62 1.167-.62 2.14V210h-2.4v-10.14h2.4v1.6c.574-1.147 1.527-1.72 2.86-1.72 1.48 0 2.44.64 2.88 1.92a3.072 3.072 0 0 1 1.2-1.42c.534-.333 1.14-.5 1.82-.5 1.027 0 1.82.313 2.38.94.56.613.84 1.493.84 2.64V210Zm10.216-.56c-.707.44-1.727.66-3.06.66-1.613 0-2.887-.48-3.82-1.44-.933-.96-1.4-2.2-1.4-3.72 0-1.613.44-2.88 1.32-3.8.88-.92 1.98-1.38 3.3-1.38 1.32 0 2.367.4 3.14 1.2.773.8 1.16 1.967 1.16 3.5 0 .373-.047.853-.14 1.44h-6.36c.173.733.533 1.293 1.08 1.68.56.387 1.253.58 2.08.58 1.067 0 1.967-.267 2.7-.8v2.08Zm-3.6-7.8c-.573 0-1.073.213-1.5.64-.413.413-.68 1.02-.8 1.82h4.26v-.3c-.027-.653-.207-1.173-.54-1.56-.32-.4-.793-.6-1.42-.6Zm8.846 8.36h-2.42l.02-10.14h2.4v1.8c.467-1.253 1.32-1.88 2.56-1.88.28 0 .507.02.68.06v2.32a2.54 2.54 0 0 0-1.02-.2c-.653 0-1.187.267-1.6.8-.413.533-.62 1.2-.62 2V210Zm13.591-.92c0 1.6-.467 2.8-1.4 3.6-.92.813-2.094 1.22-3.52 1.22-1.334 0-2.5-.24-3.5-.72v-2.44c.906.64 1.993.96 3.26.96 1.84 0 2.76-.88 2.76-2.64v-.88c-.614 1-1.574 1.5-2.88 1.5-1.134 0-2.107-.413-2.92-1.24-.8-.84-1.2-2.053-1.2-3.64 0-1.467.38-2.673 1.14-3.62.773-.96 1.786-1.44 3.04-1.44 1.266 0 2.206.527 2.82 1.58v-1.46h2.4v9.22Zm-6.9-4.28c0 .947.206 1.673.62 2.18.413.493.94.74 1.58.74.653 0 1.2-.253 1.64-.76.44-.52.66-1.193.66-2.02 0-1.08-.214-1.873-.64-2.38-.427-.507-.967-.76-1.62-.76-.694 0-1.24.273-1.64.82-.4.533-.6 1.26-.6 2.18Zm17.125 4.64c-.706.44-1.726.66-3.06.66-1.613 0-2.886-.48-3.82-1.44-.933-.96-1.4-2.2-1.4-3.72 0-1.613.44-2.88 1.32-3.8.88-.92 1.98-1.38 3.3-1.38 1.32 0 2.367.4 3.14 1.2.774.8 1.16 1.967 1.16 3.5 0 .373-.046.853-.14 1.44h-6.36c.174.733.534 1.293 1.08 1.68.56.387 1.254.58 2.08.58 1.067 0 1.967-.267 2.7-.8v2.08Zm-3.6-7.8c-.573 0-1.073.213-1.5.64-.413.413-.68 1.02-.8 1.82h4.26v-.3c-.026-.653-.206-1.173-.54-1.56-.32-.4-.793-.6-1.42-.6Zm15.246 8.36h-2.4v-6.24c0-.667-.16-1.167-.48-1.5-.32-.347-.753-.52-1.3-.52-.626 0-1.153.247-1.58.74-.426.48-.64 1.173-.64 2.08V210h-2.4v-10.14h2.4v1.74c.574-1.24 1.614-1.86 3.12-1.86 1.014 0 1.814.307 2.4.92.587.613.88 1.48.88 2.6V210Zm9.849-.44c-.707.413-1.587.62-2.64.62-1.56 0-2.827-.493-3.8-1.48-.96-.987-1.44-2.233-1.44-3.74.013-1.48.493-2.727 1.44-3.74.96-1.013 2.267-1.52 3.92-1.52.987 0 1.827.187 2.52.56v2.12c-.667-.427-1.427-.64-2.28-.64-.933 0-1.687.293-2.26.88-.573.587-.867 1.367-.88 2.34.027.96.313 1.733.86 2.32.56.587 1.313.88 2.26.88.827 0 1.593-.227 2.3-.68v2.08Zm7.254.16c-1.013 2.707-2.56 4.06-4.64 4.06-.386 0-.72-.033-1-.1v-1.98c.214.053.44.08.68.08 1.214 0 2.074-.66 2.58-1.98l-4-9.94h2.66l1.18 3.24c.36.96.647 1.767.86 2.42.227.653.367 1.067.42 1.24l.06.28c.134-.467.56-1.78 1.28-3.94l1.06-3.24h2.52l-3.66 9.86Zm18.333-3.5c0 1.2-.433 2.16-1.3 2.88-.853.707-1.98 1.06-3.38 1.06-1.52 0-2.78-.287-3.78-.86v-2.58c1.147.827 2.4 1.24 3.76 1.24.614 0 1.107-.147 1.48-.44.374-.307.56-.713.56-1.22 0-.24-.046-.453-.14-.64-.093-.187-.286-.373-.58-.56a6.62 6.62 0 0 0-.66-.4c-.146-.08-.46-.227-.94-.44a4.251 4.251 0 0 0-.3-.14 17.012 17.012 0 0 1-1.2-.6 7.992 7.992 0 0 1-1-.74 3.021 3.021 0 0 1-.82-1.1 3.86 3.86 0 0 1-.26-1.46c0-1.147.42-2.067 1.26-2.76.854-.693 1.98-1.04 3.38-1.04 1.267 0 2.36.22 3.28.66v2.44c-1-.6-2.066-.9-3.2-.9-.626 0-1.12.14-1.48.42-.346.28-.52.64-.52 1.08 0 .44.187.807.56 1.1.387.28.96.593 1.72.94.534.24.967.453 1.3.64.334.173.694.42 1.08.74.4.32.694.707.88 1.16.2.44.3.947.3 1.52Zm9.852 3.22c-.707.44-1.727.66-3.06.66-1.613 0-2.887-.48-3.82-1.44-.933-.96-1.4-2.2-1.4-3.72 0-1.613.44-2.88 1.32-3.8.88-.92 1.98-1.38 3.3-1.38 1.32 0 2.367.4 3.14 1.2.773.8 1.16 1.967 1.16 3.5 0 .373-.047.853-.14 1.44h-6.36c.173.733.533 1.293 1.08 1.68.56.387 1.253.58 2.08.58 1.067 0 1.967-.267 2.7-.8v2.08Zm-3.6-7.8c-.573 0-1.073.213-1.5.64-.413.413-.68 1.02-.8 1.82h4.26v-.3c-.027-.653-.207-1.173-.54-1.56-.32-.4-.793-.6-1.42-.6Zm8.846 8.36h-2.42l.02-10.14h2.4v1.8c.467-1.253 1.32-1.88 2.56-1.88.28 0 .507.02.68.06v2.32a2.54 2.54 0 0 0-1.02-.2c-.653 0-1.187.267-1.6.8-.413.533-.62 1.2-.62 2V210Zm9.871 0h-2.6l-3.66-10.14h2.52l1.34 4.3a71.7 71.7 0 0 1 .68 2.26c.186.653.306 1.1.36 1.34l.06.36c.133-.747.513-2.067 1.14-3.96l1.4-4.3h2.48l-3.72 10.14Zm7.768 0h-2.4v-10.14h2.4V210Zm.24-13.18c0 .413-.14.76-.42 1.04-.28.28-.62.42-1.02.42s-.74-.14-1.02-.42c-.28-.28-.42-.627-.42-1.04 0-.4.14-.74.42-1.02.28-.28.62-.42 1.02-.42s.74.14 1.02.42c.28.28.42.62.42 1.02Zm9.795 12.74c-.706.413-1.586.62-2.64.62-1.56 0-2.826-.493-3.8-1.48-.96-.987-1.44-2.233-1.44-3.74.014-1.48.494-2.727 1.44-3.74.96-1.013 2.267-1.52 3.92-1.52.987 0 1.827.187 2.52.56v2.12c-.666-.427-1.426-.64-2.28-.64-.933 0-1.686.293-2.26.88-.573.587-.866 1.367-.88 2.34.027.96.314 1.733.86 2.32.56.587 1.314.88 2.26.88.827 0 1.594-.227 2.3-.68v2.08Zm9.795-.12c-.707.44-1.727.66-3.06.66-1.613 0-2.887-.48-3.82-1.44-.933-.96-1.4-2.2-1.4-3.72 0-1.613.44-2.88 1.32-3.8.88-.92 1.98-1.38 3.3-1.38 1.32 0 2.367.4 3.14 1.2.773.8 1.16 1.967 1.16 3.5 0 .373-.047.853-.14 1.44h-6.36c.173.733.533 1.293 1.08 1.68.56.387 1.253.58 2.08.58 1.067 0 1.967-.267 2.7-.8v2.08Zm-3.6-7.8c-.573 0-1.073.213-1.5.64-.413.413-.68 1.02-.8 1.82h4.26v-.3c-.027-.653-.207-1.173-.54-1.56-.32-.4-.793-.6-1.42-.6Zm13.066 5.44c0 .947-.34 1.687-1.02 2.22-.68.533-1.587.8-2.72.8-1.254 0-2.267-.207-3.04-.62v-2.2c.893.6 1.86.9 2.9.9.44 0 .78-.08 1.02-.24a.809.809 0 0 0 .38-.7.877.877 0 0 0-.12-.46c-.08-.147-.234-.287-.46-.42a4.352 4.352 0 0 0-.54-.28 9.83 9.83 0 0 0-.84-.38.223.223 0 0 0-.08-.04.739.739 0 0 1-.1-.04c-1.48-.667-2.22-1.627-2.22-2.88 0-.933.353-1.667 1.06-2.2.706-.533 1.593-.8 2.66-.8 1.026 0 1.88.147 2.56.44v2.12c-.667-.4-1.5-.6-2.5-.6-.414 0-.74.093-.98.28a.815.815 0 0 0-.34.68c0 .107.013.207.04.3.04.093.1.187.18.28l.26.22c.08.067.193.14.34.22.146.067.273.127.38.18.106.053.253.12.44.2.186.08.333.147.44.2.706.347 1.266.733 1.68 1.16.413.427.62.98.62 1.66Zm10.356 1.22c.533 0 .947-.153 1.24-.46.307-.32.46-.733.46-1.24v-.96h-1.24c-.627 0-1.107.133-1.44.4-.333.253-.5.58-.5.98 0 .853.493 1.28 1.48 1.28Zm1.8.48c-.467.867-1.347 1.3-2.64 1.3-.96 0-1.727-.28-2.3-.84-.56-.56-.84-1.267-.84-2.12 0-.96.36-1.713 1.08-2.26.72-.547 1.76-.82 3.12-.82h1.48v-.62c0-.56-.147-.987-.44-1.28-.293-.293-.793-.44-1.5-.44-1.08 0-2.073.3-2.98.9v-2.22c.76-.467 1.853-.7 3.28-.7 2.747 0 4.12 1.28 4.12 3.84V210h-2.38v-1.22Zm10.457.98c-.467.227-1.067.34-1.8.34-2.187 0-3.28-1.107-3.28-3.32v-5.12h-1.52v-1.8h1.52v-2.44h2.4v2.44h2.52v1.8h-2.52v5.16c0 .427.113.753.34.98.226.213.54.32.94.32.506 0 .973-.14 1.4-.42v2.06Zm13.119.24h-2.52v-4.92l-4.6-8.56h2.94l.9 1.96c.52 1.133.946 2.087 1.28 2.86.333.76.533 1.233.6 1.42l.12.3c.12-.493.806-2.02 2.06-4.58l.92-1.96h2.94l-4.64 8.48v5Zm15.54-5.1c0 1.533-.433 2.793-1.3 3.78-.853.987-2.053 1.48-3.6 1.48-1.533 0-2.733-.48-3.6-1.44-.853-.96-1.28-2.187-1.28-3.68 0-1.547.447-2.82 1.34-3.82.893-1.013 2.073-1.52 3.54-1.52 1.56 0 2.767.493 3.62 1.48.853.973 1.28 2.213 1.28 3.72Zm-7.26.06c0 .933.207 1.713.62 2.34.413.627 1 .94 1.76.94.787 0 1.38-.307 1.78-.92.4-.613.6-1.393.6-2.34 0-.973-.193-1.767-.58-2.38-.387-.627-.993-.94-1.82-.94-.76 0-1.347.313-1.76.94-.4.627-.6 1.413-.6 2.36Zm18.029 5.04h-2.42v-1.66c-.534 1.173-1.574 1.76-3.12 1.76-1.027 0-1.827-.293-2.4-.88-.574-.587-.86-1.42-.86-2.5v-6.86h2.4v6.3c0 .64.153 1.127.46 1.46.32.333.753.5 1.3.5.693 0 1.233-.233 1.62-.7.4-.467.6-1.173.6-2.12v-5.44h2.42V210Zm5.008 0h-2.42l.02-10.14h2.4v1.8c.467-1.253 1.32-1.88 2.56-1.88.28 0 .507.02.68.06v2.32a2.533 2.533 0 0 0-1.02-.2c-.653 0-1.186.267-1.6.8-.413.533-.62 1.2-.62 2V210Zm16.932-5.38h-4.68V210h-2.54v-13.48h7.9v2.06h-5.36v3.98h4.68v2.06Zm5.161 5.38h-2.4v-10.14h2.4V210Zm.24-13.18c0 .413-.14.76-.42 1.04-.28.28-.62.42-1.02.42s-.74-.14-1.02-.42c-.28-.28-.42-.627-.42-1.04 0-.4.14-.74.42-1.02.28-.28.62-.42 1.02-.42s.74.14 1.02.42c.28.28.42.62.42 1.02ZM828.899 210h-2.4v-6.24c0-.667-.16-1.167-.48-1.5-.32-.347-.754-.52-1.3-.52-.627 0-1.154.247-1.58.74-.427.48-.64 1.173-.64 2.08V210h-2.4v-10.14h2.4v1.74c.573-1.24 1.613-1.86 3.12-1.86 1.013 0 1.813.307 2.4.92.586.613.88 1.48.88 2.6V210Zm11.448-.92c0 1.6-.466 2.8-1.4 3.6-.92.813-2.093 1.22-3.52 1.22-1.333 0-2.5-.24-3.5-.72v-2.44c.907.64 1.994.96 3.26.96 1.84 0 2.76-.88 2.76-2.64v-.88c-.613 1-1.573 1.5-2.88 1.5-1.133 0-2.106-.413-2.92-1.24-.8-.84-1.2-2.053-1.2-3.64 0-1.467.38-2.673 1.14-3.62.774-.96 1.787-1.44 3.04-1.44 1.267 0 2.207.527 2.82 1.58v-1.46h2.4v9.22Zm-6.9-4.28c0 .947.207 1.673.62 2.18.414.493.94.74 1.58.74.654 0 1.2-.253 1.64-.76.44-.52.66-1.193.66-2.02 0-1.08-.213-1.873-.64-2.38-.426-.507-.966-.76-1.62-.76-.693 0-1.24.273-1.64.82-.4.533-.6 1.26-.6 2.18Zm17.126 4.64c-.706.44-1.726.66-3.06.66-1.613 0-2.886-.48-3.82-1.44-.933-.96-1.4-2.2-1.4-3.72 0-1.613.44-2.88 1.32-3.8.88-.92 1.98-1.38 3.3-1.38 1.32 0 2.367.4 3.14 1.2.774.8 1.16 1.967 1.16 3.5 0 .373-.046.853-.14 1.44h-6.36c.174.733.534 1.293 1.08 1.68.56.387 1.254.58 2.08.58 1.067 0 1.967-.267 2.7-.8v2.08Zm-3.6-7.8c-.573 0-1.073.213-1.5.64-.413.413-.68 1.02-.8 1.82h4.26v-.3c-.026-.653-.206-1.173-.54-1.56-.32-.4-.793-.6-1.42-.6Zm8.846 8.36h-2.42l.02-10.14h2.4v1.8c.467-1.253 1.32-1.88 2.56-1.88.28 0 .507.02.68.06v2.32a2.54 2.54 0 0 0-1.02-.2c-.653 0-1.187.267-1.6.8-.413.533-.62 1.2-.62 2V210Zm10.251-.24c-.467.227-1.067.34-1.8.34-2.187 0-3.28-1.107-3.28-3.32v-5.12h-1.52v-1.8h1.52v-2.44h2.4v2.44h2.52v1.8h-2.52v5.16c0 .427.113.753.34.98.227.213.54.32.94.32a2.5 2.5 0 0 0 1.4-.42v2.06Zm4.478.24h-2.4v-10.14h2.4V210Zm.24-13.18c0 .413-.14.76-.42 1.04-.28.28-.62.42-1.02.42s-.74-.14-1.02-.42c-.28-.28-.42-.627-.42-1.04 0-.4.14-.74.42-1.02.28-.28.62-.42 1.02-.42s.74.14 1.02.42c.28.28.42.62.42 1.02Zm4.855 17h-2.4v-13.96h2.4v1.56c.72-1.133 1.754-1.7 3.1-1.7 1.32 0 2.367.473 3.14 1.42.787.947 1.18 2.193 1.18 3.74 0 1.52-.393 2.78-1.18 3.78-.773.987-1.826 1.48-3.16 1.48-1.36 0-2.386-.553-3.08-1.66v5.34Zm.76-11.28c-.506.52-.76 1.293-.76 2.32s.247 1.82.74 2.38c.494.56 1.087.84 1.78.84.72 0 1.307-.273 1.76-.82.454-.56.68-1.34.68-2.34 0-1-.226-1.773-.68-2.32-.453-.56-1.026-.84-1.72-.84-.693 0-1.293.26-1.8.78Zm22.376 3h-9v-1.84h9v1.84Zm10.938-1.24-.18.58h3.8l-.18-.6c-.454-1.44-.827-2.647-1.12-3.62-.28-.987-.454-1.607-.52-1.86l-.08-.4c-.12.667-.694 2.633-1.72 5.9Zm-1.8 5.7h-2.64l4.56-13.48h3.26l4.56 13.48h-2.72l-.96-3.06h-5.1l-.96 3.06Zm20.917-4.58h-1.76V210h-2.52v-13.48h4.22c1.52 0 2.734.413 3.64 1.24.92.827 1.38 1.887 1.38 3.18 0 1.373-.473 2.467-1.42 3.28-.933.8-2.113 1.2-3.54 1.2Zm-.28-6.84h-1.48v4.8h1.42c.92 0 1.607-.22 2.06-.66.454-.44.68-1.033.68-1.78 0-.733-.226-1.307-.68-1.72-.453-.427-1.12-.64-2-.64Zm9.414 11.42h-2.42l.02-10.14h2.4v1.8c.466-1.253 1.32-1.88 2.56-1.88.28 0 .506.02.68.06v2.32a2.54 2.54 0 0 0-1.02-.2c-.654 0-1.187.267-1.6.8-.414.533-.62 1.2-.62 2V210Zm13.89-5.1c0 1.533-.433 2.793-1.3 3.78-.853.987-2.053 1.48-3.6 1.48-1.533 0-2.733-.48-3.6-1.44-.853-.96-1.28-2.187-1.28-3.68 0-1.547.447-2.82 1.34-3.82.894-1.013 2.074-1.52 3.54-1.52 1.56 0 2.767.493 3.62 1.48.854.973 1.28 2.213 1.28 3.72Zm-7.26.06c0 .933.207 1.713.62 2.34.414.627 1 .94 1.76.94.787 0 1.38-.307 1.78-.92.4-.613.6-1.393.6-2.34 0-.973-.193-1.767-.58-2.38-.386-.627-.993-.94-1.82-.94-.76 0-1.346.313-1.76.94-.4.627-.6 1.413-.6 2.36Zm11.869 5.72c0 1-.273 1.793-.82 2.38-.547.587-1.327.88-2.34.88-.48 0-.987-.107-1.52-.32v-1.9c.467.2.873.3 1.22.3.707 0 1.06-.46 1.06-1.38v-10.78h2.4v10.82Zm.24-13.86c0 .413-.14.76-.42 1.04-.28.28-.627.42-1.04.42-.4 0-.74-.14-1.02-.42-.28-.28-.42-.627-.42-1.04 0-.4.14-.74.42-1.02.28-.28.62-.42 1.02-.42.413 0 .76.14 1.04.42.28.28.42.62.42 1.02Zm10.097 12.62c-.707.44-1.727.66-3.06.66-1.614 0-2.887-.48-3.82-1.44-.934-.96-1.4-2.2-1.4-3.72 0-1.613.44-2.88 1.32-3.8.88-.92 1.98-1.38 3.3-1.38 1.32 0 2.366.4 3.14 1.2.773.8 1.16 1.967 1.16 3.5 0 .373-.047.853-.14 1.44h-6.36c.173.733.533 1.293 1.08 1.68.56.387 1.253.58 2.08.58 1.066 0 1.966-.267 2.7-.8v2.08Zm-3.6-7.8c-.574 0-1.074.213-1.5.64-.414.413-.68 1.02-.8 1.82h4.26v-.3c-.027-.653-.207-1.173-.54-1.56-.32-.4-.794-.6-1.42-.6Zm13.786 7.92c-.707.413-1.587.62-2.64.62-1.56 0-2.827-.493-3.8-1.48-.96-.987-1.44-2.233-1.44-3.74.013-1.48.493-2.727 1.44-3.74.96-1.013 2.266-1.52 3.92-1.52.986 0 1.826.187 2.52.56v2.12c-.667-.427-1.427-.64-2.28-.64-.934 0-1.687.293-2.26.88-.574.587-.867 1.367-.88 2.34.026.96.313 1.733.86 2.32.56.587 1.313.88 2.26.88.826 0 1.593-.227 2.3-.68v2.08Zm7.654.2c-.467.227-1.067.34-1.8.34-2.187 0-3.28-1.107-3.28-3.32v-5.12h-1.52v-1.8h1.52v-2.44h2.4v2.44h2.52v1.8h-2.52v5.16c0 .427.113.753.34.98.227.213.54.32.94.32a2.5 2.5 0 0 0 1.4-.42v2.06Zm9.379.24h-2.42v-14.14h2.42v5.54c.707-1.12 1.72-1.68 3.04-1.68 1.267 0 2.307.473 3.117 1.42.83.933 1.24 2.2 1.24 3.8 0 1.44-.39 2.667-1.18 3.68-.77 1.013-1.823 1.52-3.157 1.52-1.333 0-2.353-.567-3.06-1.7V210Zm0-5.16c0 1.053.24 1.86.72 2.42.48.547 1.08.82 1.8.82.694 0 1.274-.287 1.74-.86.467-.573.7-1.32.7-2.24 0-1.013-.24-1.8-.72-2.36-.466-.573-1.046-.86-1.74-.86-.653 0-1.233.26-1.74.78-.506.507-.76 1.273-.76 2.3Zm14.657 4.88c-1.02 2.707-2.56 4.06-4.64 4.06-.39 0-.72-.033-1-.1v-1.98c.21.053.44.08.68.08 1.21 0 2.07-.66 2.58-1.98l-4-9.94h2.66l1.18 3.24c.36.96.64 1.767.86 2.42.22.653.36 1.067.42 1.24l.06.28c.13-.467.56-1.78 1.28-3.94l1.06-3.24h2.52l-3.66 9.86Zm26.35-.88c-1.23.88-2.76 1.32-4.6 1.32-2.13 0-3.86-.62-5.18-1.86-1.31-1.24-1.96-2.927-1.96-5.06 0-2.08.67-3.76 2.02-5.04 1.36-1.28 3.07-1.92 5.14-1.92 1.53 0 2.85.287 3.94.86v2.58c-1.23-.733-2.53-1.1-3.9-1.1-1.35 0-2.43.42-3.26 1.26-.83.84-1.24 1.96-1.24 3.36 0 1.427.4 2.553 1.2 3.38.81.813 1.93 1.22 3.34 1.22.69 0 1.37-.12 2.02-.36v-3.18h-2.48v-2.16h4.96v6.48h-.02l.02.22Zm11.81-3.94c0 1.533-.43 2.793-1.3 3.78-.85.987-2.05 1.48-3.6 1.48-1.53 0-2.73-.48-3.6-1.44-.85-.96-1.28-2.187-1.28-3.68 0-1.547.45-2.82 1.34-3.82.89-1.013 2.07-1.52 3.54-1.52 1.56 0 2.77.493 3.62 1.48.85.973 1.28 2.213 1.28 3.72Zm-7.26.06c0 .933.21 1.713.62 2.34.41.627 1 .94 1.76.94.79 0 1.38-.307 1.78-.92.4-.613.6-1.393.6-2.34 0-.973-.19-1.767-.58-2.38-.39-.627-.99-.94-1.82-.94-.76 0-1.35.313-1.76.94-.4.627-.6 1.413-.6 2.36Zm14.55 5.04h-2.6l-3.66-10.14h2.52l1.34 4.3c.26.84.49 1.593.68 2.26.18.653.3 1.1.36 1.34l.06.36c.13-.747.51-2.067 1.14-3.96l1.4-4.3h2.48l-3.72 10.14Zm13.01-.56c-.71.44-1.73.66-3.06.66-1.62 0-2.89-.48-3.82-1.44-.94-.96-1.4-2.2-1.4-3.72 0-1.613.44-2.88 1.32-3.8.88-.92 1.98-1.38 3.3-1.38 1.32 0 2.36.4 3.14 1.2.77.8 1.16 1.967 1.16 3.5 0 .373-.05.853-.14 1.44h-6.36c.17.733.53 1.293 1.08 1.68.56.387 1.25.58 2.08.58 1.06 0 1.96-.267 2.7-.8v2.08Zm-3.6-7.8c-.58 0-1.08.213-1.5.64-.42.413-.68 1.02-.8 1.82h4.26v-.3c-.03-.653-.21-1.173-.54-1.56-.32-.4-.8-.6-1.42-.6Zm8.84 8.36h-2.42l.02-10.14h2.4v1.8c.47-1.253 1.32-1.88 2.56-1.88.28 0 .51.02.68.06v2.32a2.56 2.56 0 0 0-1.02-.2c-.65 0-1.19.267-1.6.8-.41.533-.62 1.2-.62 2V210Zm13.45 0h-2.4v-6.24c0-.667-.16-1.167-.48-1.5-.32-.347-.75-.52-1.3-.52-.62 0-1.15.247-1.58.74-.42.48-.64 1.173-.64 2.08V210h-2.4v-10.14h2.4v1.74c.58-1.24 1.62-1.86 3.12-1.86 1.02 0 1.82.307 2.4.92.59.613.88 1.48.88 2.6V210Zm16.89 0h-2.42v-6.22c0-1.36-.52-2.04-1.56-2.04-.52 0-.99.227-1.4.68-.4.453-.6 1.167-.6 2.14V210h-2.42v-6.22c0-1.36-.52-2.04-1.56-2.04-.52 0-.99.227-1.4.68-.41.453-.62 1.167-.62 2.14V210h-2.4v-10.14h2.4v1.6c.57-1.147 1.53-1.72 2.86-1.72 1.48 0 2.44.64 2.88 1.92.27-.613.67-1.087 1.2-1.42.53-.333 1.14-.5 1.82-.5 1.03 0 1.82.313 2.38.94.56.613.84 1.493.84 2.64V210Zm10.22-.56c-.71.44-1.73.66-3.06.66-1.62 0-2.89-.48-3.82-1.44-.94-.96-1.4-2.2-1.4-3.72 0-1.613.44-2.88 1.32-3.8.88-.92 1.98-1.38 3.3-1.38 1.32 0 2.36.4 3.14 1.2.77.8 1.16 1.967 1.16 3.5 0 .373-.05.853-.14 1.44h-6.36c.17.733.53 1.293 1.08 1.68.56.387 1.25.58 2.08.58 1.06 0 1.96-.267 2.7-.8v2.08Zm-3.6-7.8c-.58 0-1.08.213-1.5.64-.42.413-.68 1.02-.8 1.82h4.26v-.3c-.03-.653-.21-1.173-.54-1.56-.32-.4-.8-.6-1.42-.6Zm15.24 8.36h-2.4v-6.24c0-.667-.16-1.167-.48-1.5-.32-.347-.75-.52-1.3-.52-.62 0-1.15.247-1.58.74-.42.48-.64 1.173-.64 2.08V210h-2.4v-10.14h2.4v1.74c.58-1.24 1.62-1.86 3.12-1.86 1.02 0 1.82.307 2.4.92.59.613.88 1.48.88 2.6V210Zm8.11-.24c-.47.227-1.07.34-1.8.34-2.19 0-3.28-1.107-3.28-3.32v-5.12h-1.52v-1.8h1.52v-2.44h2.4v2.44h2.52v1.8h-2.52v5.16c0 .427.11.753.34.98.23.213.54.32.94.32.51 0 .97-.14 1.4-.42v2.06Zm16.18-4.86c0 1.533-.43 2.793-1.3 3.78-.85.987-2.05 1.48-3.6 1.48-1.53 0-2.73-.48-3.6-1.44-.85-.96-1.28-2.187-1.28-3.68 0-1.547.45-2.82 1.34-3.82.89-1.013 2.07-1.52 3.54-1.52 1.56 0 2.77.493 3.62 1.48.85.973 1.28 2.213 1.28 3.72Zm-7.26.06c0 .933.21 1.713.62 2.34.41.627 1 .94 1.76.94.79 0 1.38-.307 1.78-.92.4-.613.6-1.393.6-2.34 0-.973-.19-1.767-.58-2.38-.39-.627-.99-.94-1.82-.94-.76 0-1.35.313-1.76.94-.4.627-.6 1.413-.6 2.36Zm14.53-3.3h-2.02V210h-2.4v-8.34h-1.48v-1.8h1.48v-.6c0-1.133.31-2.02.94-2.66.63-.64 1.49-.96 2.6-.96.51 0 .95.06 1.32.18v2.02c-.35-.133-.68-.2-1-.2-.97 0-1.46.547-1.46 1.64v.58h2.02v1.8Zm12.16 8.1c-.47.227-1.07.34-1.8.34-2.19 0-3.28-1.107-3.28-3.32v-5.12h-1.52v-1.8h1.52v-2.44h2.4v2.44h2.52v1.8h-2.52v5.16c0 .427.11.753.34.98.22.213.54.32.94.32.5 0 .97-.14 1.4-.42v2.06Zm10.77.24h-2.4v-6.22c0-.64-.16-1.14-.5-1.5-.32-.36-.74-.54-1.26-.54-.57 0-1.09.22-1.56.66-.45.44-.68 1.16-.68 2.16V210h-2.4v-14.14h2.4v5.72c.55-1.227 1.58-1.84 3.1-1.84.99 0 1.78.313 2.38.94.62.613.92 1.507.92 2.68V210Zm10.25-.56c-.7.44-1.72.66-3.06.66-1.61 0-2.88-.48-3.82-1.44-.93-.96-1.4-2.2-1.4-3.72 0-1.613.44-2.88 1.32-3.8.88-.92 1.98-1.38 3.3-1.38 1.32 0 2.37.4 3.14 1.2.78.8 1.16 1.967 1.16 3.5 0 .373-.04.853-.14 1.44h-6.36c.18.733.54 1.293 1.08 1.68.56.387 1.26.58 2.08.58 1.07 0 1.97-.267 2.7-.8v2.08Zm-3.6-7.8c-.57 0-1.07.213-1.5.64-.41.413-.68 1.02-.8 1.82h4.26v-.3c-.02-.653-.2-1.173-.54-1.56-.32-.4-.79-.6-1.42-.6Zm15.79 3.78h-1.76V210h-2.52v-13.48h4.22c1.52 0 2.73.413 3.64 1.24.92.827 1.38 1.887 1.38 3.18 0 1.373-.47 2.467-1.42 3.28-.93.8-2.11 1.2-3.54 1.2Zm-.28-6.84h-1.48v4.8h1.42c.92 0 1.61-.22 2.06-.66.45-.44.68-1.033.68-1.78 0-.733-.23-1.307-.68-1.72-.45-.427-1.12-.64-2-.64Zm14.75 10.86c-.7.44-1.72.66-3.06.66-1.61 0-2.88-.48-3.82-1.44-.93-.96-1.4-2.2-1.4-3.72 0-1.613.44-2.88 1.32-3.8.88-.92 1.98-1.38 3.3-1.38 1.32 0 2.37.4 3.14 1.2.78.8 1.16 1.967 1.16 3.5 0 .373-.04.853-.14 1.44h-6.36c.18.733.54 1.293 1.08 1.68.56.387 1.26.58 2.08.58 1.07 0 1.97-.267 2.7-.8v2.08Zm-3.6-7.8c-.57 0-1.07.213-1.5.64-.41.413-.68 1.02-.8 1.82h4.26v-.3c-.02-.653-.2-1.173-.54-1.56-.32-.4-.79-.6-1.42-.6Zm15.69 3.26c0 1.533-.43 2.793-1.3 3.78-.85.987-2.05 1.48-3.6 1.48-1.53 0-2.73-.48-3.6-1.44-.85-.96-1.28-2.187-1.28-3.68 0-1.547.45-2.82 1.34-3.82.89-1.013 2.07-1.52 3.54-1.52 1.56 0 2.77.493 3.62 1.48.85.973 1.28 2.213 1.28 3.72Zm-7.26.06c0 .933.21 1.713.62 2.34.41.627 1 .94 1.76.94.79 0 1.38-.307 1.78-.92.4-.613.6-1.393.6-2.34 0-.973-.19-1.767-.58-2.38-.39-.627-.99-.94-1.82-.94-.76 0-1.35.313-1.76.94-.4.627-.6 1.413-.6 2.36Zm11.73 8.86h-2.4v-13.96h2.4v1.56c.72-1.133 1.75-1.7 3.1-1.7 1.32 0 2.36.473 3.14 1.42.78.947 1.18 2.193 1.18 3.74 0 1.52-.4 2.78-1.18 3.78-.78.987-1.83 1.48-3.16 1.48-1.36 0-2.39-.553-3.08-1.66v5.34Zm.76-11.28c-.51.52-.76 1.293-.76 2.32s.24 1.82.74 2.38c.49.56 1.08.84 1.78.84.72 0 1.3-.273 1.76-.82.45-.56.68-1.34.68-2.34 0-1-.23-1.773-.68-2.32-.46-.56-1.03-.84-1.72-.84-.7 0-1.3.26-1.8.78Zm11.21 7.46h-2.4v-14.14h2.4V210Zm10.44-.56c-.71.44-1.73.66-3.06.66-1.62 0-2.89-.48-3.82-1.44-.94-.96-1.4-2.2-1.4-3.72 0-1.613.44-2.88 1.32-3.8.88-.92 1.98-1.38 3.3-1.38 1.32 0 2.36.4 3.14 1.2.77.8 1.16 1.967 1.16 3.5 0 .373-.05.853-.14 1.44h-6.36c.17.733.53 1.293 1.08 1.68.56.387 1.25.58 2.08.58 1.06 0 1.96-.267 2.7-.8v2.08Zm-3.6-7.8c-.58 0-1.08.213-1.5.64-.42.413-.68 1.02-.8 1.82h4.26v-.3c-.03-.653-.21-1.173-.54-1.56-.32-.4-.8-.6-1.42-.6Zm7.62-.58h-2.04l1.88-4.94h2.74l-2.58 4.94Zm10.13 6.02c0 .947-.34 1.687-1.02 2.22-.68.533-1.59.8-2.72.8-1.25 0-2.27-.207-3.04-.62v-2.2c.89.6 1.86.9 2.9.9.44 0 .78-.08 1.02-.24a.815.815 0 0 0 .38-.7.877.877 0 0 0-.12-.46c-.08-.147-.23-.287-.46-.42a4.822 4.822 0 0 0-.54-.28c-.12-.067-.37-.18-.74-.34-.04-.013-.07-.027-.1-.04-.01-.013-.04-.027-.08-.04-.04-.013-.07-.027-.1-.04-1.48-.667-2.22-1.627-2.22-2.88 0-.933.35-1.667 1.06-2.2.71-.533 1.59-.8 2.66-.8 1.03 0 1.88.147 2.56.44v2.12c-.67-.4-1.5-.6-2.5-.6-.41 0-.74.093-.98.28-.23.173-.34.4-.34.68 0 .107.01.207.04.3.04.093.1.187.18.28.09.08.18.153.26.22.08.067.19.14.34.22.15.067.27.127.38.18.11.053.25.12.44.2.19.08.33.147.44.2.71.347 1.27.733 1.68 1.16.41.427.62.98.62 1.66Zm11.14-8.48h-1.64v4.4h1.68c.77 0 1.35-.193 1.74-.58.38-.4.58-.953.58-1.66 0-.693-.21-1.227-.62-1.6-.4-.373-.98-.56-1.74-.56Zm-1.64 11.4h-2.52v-13.48h4.16c1.53 0 2.73.387 3.6 1.16.88.773 1.32 1.807 1.32 3.1-.02.96-.25 1.773-.7 2.44a4.141 4.141 0 0 1-1.86 1.46l3.46 5.32h-3.02l-3.06-4.92h-1.38V210Zm16.9-.56c-.71.44-1.73.66-3.06.66-1.62 0-2.89-.48-3.82-1.44-.94-.96-1.4-2.2-1.4-3.72 0-1.613.44-2.88 1.32-3.8.88-.92 1.98-1.38 3.3-1.38 1.32 0 2.36.4 3.14 1.2.77.8 1.16 1.967 1.16 3.5 0 .373-.05.853-.14 1.44h-6.36c.17.733.53 1.293 1.08 1.68.56.387 1.25.58 2.08.58 1.06 0 1.96-.267 2.7-.8v2.08Zm-3.6-7.8c-.58 0-1.08.213-1.5.64-.42.413-.68 1.02-.8 1.82h4.26v-.3c-.03-.653-.21-1.173-.54-1.56-.32-.4-.8-.6-1.42-.6Zm8.84 12.18h-2.4v-13.96h2.4v1.56c.72-1.133 1.75-1.7 3.1-1.7 1.32 0 2.37.473 3.14 1.42.79.947 1.18 2.193 1.18 3.74 0 1.52-.39 2.78-1.18 3.78-.77.987-1.83 1.48-3.16 1.48-1.36 0-2.39-.553-3.08-1.66v5.34Zm.76-11.28c-.51.52-.76 1.293-.76 2.32s.25 1.82.74 2.38c.49.56 1.09.84 1.78.84.72 0 1.31-.273 1.76-.82.45-.56.68-1.34.68-2.34 0-1-.23-1.773-.68-2.32-.45-.56-1.03-.84-1.72-.84s-1.29.26-1.8.78Zm17.42 7.46h-2.42v-1.66c-.54 1.173-1.58 1.76-3.12 1.76-1.03 0-1.83-.293-2.4-.88-.58-.587-.86-1.42-.86-2.5v-6.86h2.4v6.3c0 .64.15 1.127.46 1.46.32.333.75.5 1.3.5.69 0 1.23-.233 1.62-.7.4-.467.6-1.173.6-2.12v-5.44h2.42V210Zm5.04 0h-2.42v-14.14h2.42v5.54c.71-1.12 1.72-1.68 3.04-1.68 1.27 0 2.31.473 3.12 1.42.83.933 1.24 2.2 1.24 3.8 0 1.44-.39 2.667-1.18 3.68-.77 1.013-1.82 1.52-3.16 1.52-1.33 0-2.35-.567-3.06-1.7V210Zm0-5.16c0 1.053.24 1.86.72 2.42.48.547 1.08.82 1.8.82.7 0 1.28-.287 1.74-.86.47-.573.7-1.32.7-2.24 0-1.013-.24-1.8-.72-2.36-.46-.573-1.04-.86-1.74-.86-.65 0-1.23.26-1.74.78-.5.507-.76 1.273-.76 2.3Zm11.96 5.16h-2.4v-14.14h2.4V210Zm5.19 0h-2.4v-10.14h2.4V210Zm.24-13.18c0 .413-.14.76-.42 1.04-.28.28-.62.42-1.02.42s-.74-.14-1.02-.42c-.28-.28-.42-.627-.42-1.04 0-.4.14-.74.42-1.02.28-.28.62-.42 1.02-.42s.74.14 1.02.42c.28.28.42.62.42 1.02Zm9.8 12.74c-.71.413-1.59.62-2.64.62-1.56 0-2.83-.493-3.8-1.48-.96-.987-1.44-2.233-1.44-3.74.01-1.48.49-2.727 1.44-3.74.96-1.013 2.27-1.52 3.92-1.52.99 0 1.83.187 2.52.56v2.12c-.67-.427-1.43-.64-2.28-.64-.93 0-1.69.293-2.26.88-.57.587-.87 1.367-.88 2.34.03.96.31 1.733.86 2.32.56.587 1.31.88 2.26.88.83 0 1.59-.227 2.3-.68v2.08Zm16.26-4.66c0 1.533-.44 2.793-1.3 3.78-.86.987-2.06 1.48-3.6 1.48s-2.74-.48-3.6-1.44c-.86-.96-1.28-2.187-1.28-3.68 0-1.547.44-2.82 1.34-3.82.89-1.013 2.07-1.52 3.54-1.52 1.56 0 2.76.493 3.62 1.48.85.973 1.28 2.213 1.28 3.72Zm-7.26.06c0 .933.2 1.713.62 2.34.41.627 1 .94 1.76.94.78 0 1.38-.307 1.78-.92.4-.613.6-1.393.6-2.34 0-.973-.2-1.767-.58-2.38-.39-.627-1-.94-1.82-.94-.76 0-1.35.313-1.76.94-.4.627-.6 1.413-.6 2.36Zm14.52-3.3h-2.02V210h-2.4v-8.34h-1.48v-1.8h1.48v-.6c0-1.133.32-2.02.94-2.66.63-.64 1.5-.96 2.6-.96.51 0 .95.06 1.32.18v2.02c-.34-.133-.68-.2-1-.2-.97 0-1.46.547-1.46 1.64v.58h2.02v1.8Zm12.12 8.34h-5.46v-13.48h4.78c1.44 0 2.56.34 3.36 1.02.8.68 1.2 1.56 1.2 2.64 0 .733-.2 1.373-.6 1.92-.4.533-.91.887-1.54 1.06.72.173 1.31.527 1.78 1.06.47.52.7 1.233.7 2.14 0 1.067-.37 1.94-1.12 2.62-.75.68-1.78 1.02-3.1 1.02Zm-1-11.42h-1.94v3.62h1.52c.91 0 1.59-.18 2.04-.54.45-.36.68-.82.68-1.38 0-.52-.19-.933-.58-1.24-.37-.307-.95-.46-1.72-.46Zm.12 5.64h-2.06v3.72h2.16c1.61 0 2.42-.613 2.42-1.84 0-1.253-.84-1.88-2.52-1.88Zm10.64 4.08c.53 0 .94-.153 1.24-.46.3-.32.46-.733.46-1.24v-.96h-1.24c-.63 0-1.11.133-1.44.4-.34.253-.5.58-.5.98 0 .853.49 1.28 1.48 1.28Zm1.8.48c-.47.867-1.35 1.3-2.64 1.3-.96 0-1.73-.28-2.3-.84-.56-.56-.84-1.267-.84-2.12 0-.96.36-1.713 1.08-2.26.72-.547 1.76-.82 3.12-.82h1.48v-.62c0-.56-.15-.987-.44-1.28-.3-.293-.8-.44-1.5-.44-1.08 0-2.08.3-2.98.9v-2.22c.76-.467 1.85-.7 3.28-.7 2.74 0 4.12 1.28 4.12 3.84V210h-2.38v-1.22ZM1412 210h-2.4v-6.24c0-.667-.16-1.167-.48-1.5-.32-.347-.75-.52-1.3-.52-.62 0-1.15.247-1.58.74-.42.48-.64 1.173-.64 2.08V210h-2.4v-10.14h2.4v1.74c.58-1.24 1.62-1.86 3.12-1.86 1.02 0 1.82.307 2.4.92.59.613.88 1.48.88 2.6V210Zm11.45-.92c0 1.6-.46 2.8-1.4 3.6-.92.813-2.09 1.22-3.52 1.22-1.33 0-2.5-.24-3.5-.72v-2.44c.91.64 2 .96 3.26.96 1.84 0 2.76-.88 2.76-2.64v-.88c-.61 1-1.57 1.5-2.88 1.5-1.13 0-2.1-.413-2.92-1.24-.8-.84-1.2-2.053-1.2-3.64 0-1.467.38-2.673 1.14-3.62.78-.96 1.79-1.44 3.04-1.44 1.27 0 2.21.527 2.82 1.58v-1.46h2.4v9.22Zm-6.9-4.28c0 .947.21 1.673.62 2.18.42.493.94.74 1.58.74.66 0 1.2-.253 1.64-.76.44-.52.66-1.193.66-2.02 0-1.08-.21-1.873-.64-2.38-.42-.507-.96-.76-1.62-.76-.69 0-1.24.273-1.64.82-.4.533-.6 1.26-.6 2.18Zm11.89 5.2h-2.4v-14.14h2.4V210Zm6.17-1.7c.54 0 .95-.153 1.24-.46.31-.32.46-.733.46-1.24v-.96h-1.24c-.62 0-1.1.133-1.44.4-.33.253-.5.58-.5.98 0 .853.5 1.28 1.48 1.28Zm1.8.48c-.46.867-1.34 1.3-2.64 1.3-.96 0-1.72-.28-2.3-.84-.56-.56-.84-1.267-.84-2.12 0-.96.36-1.713 1.08-2.26.72-.547 1.76-.82 3.12-.82h1.48v-.62c0-.56-.14-.987-.44-1.28-.29-.293-.79-.44-1.5-.44-1.08 0-2.07.3-2.98.9v-2.22c.76-.467 1.86-.7 3.28-.7 2.75 0 4.12 1.28 4.12 3.84V210h-2.38v-1.22Zm6.78-3.8c0 .92.23 1.667.7 2.24.47.573 1.05.86 1.74.86.72 0 1.32-.273 1.8-.82.48-.56.72-1.367.72-2.42 0-1.027-.25-1.793-.76-2.3-.51-.52-1.09-.78-1.74-.78-.69 0-1.28.287-1.76.86-.47.56-.7 1.347-.7 2.36Zm7.36 5.02h-2.4v-1.58c-.69 1.147-1.72 1.72-3.08 1.72-1.33 0-2.39-.507-3.18-1.52-.77-1.013-1.16-2.24-1.16-3.68 0-1.6.41-2.867 1.22-3.8.83-.947 1.88-1.42 3.16-1.42 1.32 0 2.33.567 3.04 1.7v-5.56h2.4V210Zm10.34-.56c-.71.44-1.73.66-3.06.66-1.62 0-2.89-.48-3.82-1.44-.94-.96-1.4-2.2-1.4-3.72 0-1.613.44-2.88 1.32-3.8.88-.92 1.98-1.38 3.3-1.38 1.32 0 2.36.4 3.14 1.2.77.8 1.16 1.967 1.16 3.5 0 .373-.05.853-.14 1.44h-6.36c.17.733.53 1.293 1.08 1.68.56.387 1.25.58 2.08.58 1.06 0 1.96-.267 2.7-.8v2.08Zm-3.6-7.8c-.58 0-1.08.213-1.5.64-.42.413-.68 1.02-.8 1.82h4.26v-.3c-.03-.653-.21-1.173-.54-1.56-.32-.4-.8-.6-1.42-.6Zm13.06 5.44c0 .947-.34 1.687-1.02 2.22-.68.533-1.59.8-2.72.8-1.25 0-2.27-.207-3.04-.62v-2.2c.89.6 1.86.9 2.9.9.44 0 .78-.08 1.02-.24a.815.815 0 0 0 .38-.7.877.877 0 0 0-.12-.46c-.08-.147-.23-.287-.46-.42a4.822 4.822 0 0 0-.54-.28c-.12-.067-.37-.18-.74-.34-.04-.013-.07-.027-.1-.04-.01-.013-.04-.027-.08-.04-.04-.013-.07-.027-.1-.04-1.48-.667-2.22-1.627-2.22-2.88 0-.933.35-1.667 1.06-2.2.71-.533 1.59-.8 2.66-.8 1.03 0 1.88.147 2.56.44v2.12c-.67-.4-1.5-.6-2.5-.6-.41 0-.74.093-.98.28-.23.173-.34.4-.34.68 0 .107.01.207.04.3.04.093.1.187.18.28.09.08.18.153.26.22.08.067.19.14.34.22.15.067.27.127.38.18.11.053.25.12.44.2.19.08.33.147.44.2.71.347 1.27.733 1.68 1.16.41.427.62.98.62 1.66Zm10.72 2.92h-2.4v-6.22c0-.64-.17-1.14-.5-1.5-.32-.36-.74-.54-1.26-.54-.58 0-1.1.22-1.56.66-.46.44-.68 1.16-.68 2.16V210h-2.4v-14.14h2.4v5.72c.54-1.227 1.58-1.84 3.1-1.84.98 0 1.78.313 2.38.94.61.613.92 1.507.92 2.68V210Z"/>
  <defs>
    <linearGradient id="a" x1="0" x2="1920" y1="119.5" y2="119.5" gradientUnits="userSpaceOnUse">
      <stop stop-color="#013223"/>
      <stop offset=".5" stop-color="#006747"/>
      <stop offset="1" stop-color="#013223"/>
    </linearGradient>
  </defs>
</svg>
