<svg xmlns="http://www.w3.org/2000/svg" width="16" height="16" fill="none" viewBox="0 0 16 16">
  <path stroke="#fff" stroke-linejoin="round" stroke-width="1.5" d="M5.22 10.78a13.934 13.934 0 0 1-3.231-5.075c-.382-1.043-.032-2.188.753-2.974l.486-.485a1.407 1.407 0 0 1 1.991 0l1.138 1.138a1.406 1.406 0 0 1 0 1.991l-.28.28a1.207 1.207 0 0 0 0 1.707l2.56 2.56a1.205 1.205 0 0 0 1.707 0l.28-.28a1.407 1.407 0 0 1 1.992 0l1.138 1.139a1.405 1.405 0 0 1 0 1.991l-.485.485c-.786.786-1.93 1.136-2.974.754a13.933 13.933 0 0 1-5.076-3.23Z"/>
</svg>
