<svg xmlns="http://www.w3.org/2000/svg" width="16" height="16" fill="none" viewBox="0 0 16 16">
  <path fill="#5C5C5C" d="M13.5 7.333c0-.956-.001-1.624-.069-2.127-.058-.428-.156-.68-.304-.86l-.067-.073c-.184-.185-.443-.305-.932-.37-.504-.068-1.171-.07-2.128-.07H8c-.957 0-1.624.002-2.128.07-.428.057-.68.156-.86.303l-.073.067c-.184.184-.304.443-.37.933-.068.503-.069 1.17-.069 2.127v3.334c0 .956.001 1.624.069 2.127.066.49.186.749.37.933l.073.067c.18.147.432.246.86.304.504.067 1.171.069 2.128.069h2c.957 0 1.624-.002 2.128-.07.489-.065.748-.185.932-.37l.067-.073c.147-.18.246-.432.304-.86.068-.503.069-1.17.069-2.127V7.333Zm1 3.334c0 .928.001 1.675-.078 2.26-.075.563-.232 1.043-.582 1.431l-.072.076c-.402.402-.907.575-1.507.655-.586.079-1.332.078-2.261.078H8c-.928 0-1.675 0-2.261-.078-.563-.075-1.042-.232-1.43-.582l-.077-.073c-.401-.4-.574-.906-.655-1.506-.078-.586-.077-1.333-.077-2.261V7.333c0-.928-.001-1.675.077-2.26.081-.6.254-1.106.655-1.507l.077-.073c.388-.35.867-.507 1.43-.582.586-.079 1.333-.078 2.261-.078h2c.928 0 1.675-.001 2.261.078.6.08 1.106.253 1.507.655l.072.076c.35.388.507.868.582 1.43.08.586.078 1.333.078 2.261v3.334Z"/>
  <path fill="#5C5C5C" d="M1.5 10.667v-4c0-1.243-.001-2.226.102-2.993.105-.782.327-1.414.826-1.913.499-.498 1.132-.72 1.913-.825.767-.104 1.75-.103 2.992-.103H10a2.5 2.5 0 0 1 2.5 2.5h-1a1.5 1.5 0 0 0-1.5-1.5H7.333c-1.27 0-2.173.002-2.858.094-.67.09-1.058.259-1.34.541-.282.282-.452.669-.542 1.34-.092.684-.093 1.588-.093 2.859v4a1.5 1.5 0 0 0 1.5 1.5v1a2.5 2.5 0 0 1-2.5-2.5Z"/>
</svg>
