<svg xmlns="http://www.w3.org/2000/svg" width="14" height="14" fill="none" viewBox="0 0 14 14">
  <path stroke="#fff" stroke-linejoin="round" stroke-width="1.5" d="M4.137 9.698A13.933 13.933 0 0 1 .906 4.622c-.382-1.043-.032-2.188.753-2.974l.486-.485a1.407 1.407 0 0 1 1.992 0l1.138 1.138a1.407 1.407 0 0 1 0 1.991l-.28.28a1.207 1.207 0 0 0 0 1.707l2.56 2.56a1.207 1.207 0 0 0 1.706 0l.281-.28a1.407 1.407 0 0 1 1.991 0l1.138 1.139a1.408 1.408 0 0 1 0 1.991l-.485.485c-.785.786-1.93 1.136-2.973.754a13.933 13.933 0 0 1-5.076-3.23Z"/>
</svg>
